<?xml version="1.0" encoding="utf-8"?>
<!-- Generator: Adobe Illustrator 15.0.0, SVG Export Plug-In . SVG Version: 6.00 Build 0)  -->
<!DOCTYPE svg PUBLIC "-//W3C//DTD SVG 1.1//EN" "http://www.w3.org/Graphics/SVG/1.1/DTD/svg11.dtd">
<svg version="1.1" id="Layer_1" xmlns="http://www.w3.org/2000/svg" xmlns:xlink="http://www.w3.org/1999/xlink" x="0px" y="0px"
	 width="21px" height="21px" viewBox="0 0 21 21" enable-background="new 0 0 21 21" xml:space="preserve">
<path fill="#FB565A" d="M13.328,10.5l7.371-7.371c0.389-0.389,0.389-1.025,0-1.414l-1.414-1.415c-0.389-0.389-1.025-0.389-1.414,0
	L10.5,7.672L3.129,0.301c-0.389-0.389-1.025-0.389-1.414,0L0.301,1.715c-0.389,0.389-0.389,1.025,0,1.414L7.672,10.5l-7.371,7.371
	c-0.389,0.389-0.389,1.025,0,1.414l1.415,1.414c0.389,0.389,1.025,0.389,1.414,0l7.371-7.371l7.371,7.371
	c0.389,0.389,1.025,0.389,1.414,0l1.414-1.414c0.389-0.389,0.389-1.025,0-1.414L13.328,10.5z"/>
</svg>
